<svg xmlns="http://www.w3.org/2000/svg" xmlns:xlink="http://www.w3.org/1999/xlink" contentStyleType="text/css" height="496px" preserveAspectRatio="none" style="width:735px;height:496px;background:#FFFFFF;" version="1.1" viewBox="0 0 735 496" width="735px" zoomAndPan="magnify"><defs/><g><!--class personal_information--><g id="elem_personal_information"><rect codeLine="1" fill="#F1F1F1" height="210.9688" id="personal_information" rx="2.5" ry="2.5" style="stroke:#181818;stroke-width:0.5;" width="305.5488" x="207.96" y="7"/><ellipse cx="283.6099" cy="23" fill="#ADD1B2" rx="11" ry="11" style="stroke:#181818;stroke-width:1.0;"/><path d="M287.7193,29 L280.0005,29 L280.0005,16.6094 L287.7193,16.6094 L287.7193,18.7656 L282.4537,18.7656 L282.4537,21.4375 L287.2193,21.4375 L287.2193,23.5938 L282.4537,23.5938 L282.4537,26.8438 L287.7193,26.8438 L287.7193,29 Z " fill="#000000"/><text fill="#000000" font-family="sans-serif" font-size="14" lengthAdjust="spacing" textLength="145.749" x="304.1099" y="27.8467">Personal Information</text><line style="stroke:#181818;stroke-width:0.5;" x1="208.96" x2="512.5088" y1="39" y2="39"/><ellipse cx="218.96" cy="52.6484" fill="none" rx="3" ry="3" style="stroke:#038048;stroke-width:1.0;"/><text fill="#000000" font-family="sans-serif" font-size="14" lengthAdjust="spacing" textLength="143.7393" x="227.96" y="55.9951">person_id : INT &#171;PK&#187;</text><text fill="#000000" font-family="sans-serif" font-size="14" lengthAdjust="spacing" textLength="279.5488" x="227.96" y="72.292">year_of_completion : YEAR &#171;NOT NULL&#187;</text><line style="stroke:#181818;stroke-width:0.5;" x1="208.96" x2="512.5088" y1="79.5938" y2="79.5938"/><text fill="#000000" font-family="sans-serif" font-size="14" lengthAdjust="spacing" textLength="286.207" x="213.96" y="96.5889">first_name : VARCHAR(100) &#171;NOT NULL&#187;</text><text fill="#000000" font-family="sans-serif" font-size="14" lengthAdjust="spacing" textLength="284.1016" x="213.96" y="112.8857">last_name : VARCHAR(100) &#171;NOT NULL&#187;</text><text fill="#000000" font-family="sans-serif" font-size="14" lengthAdjust="spacing" textLength="261.5156" x="213.96" y="129.1826">degree : VARCHAR(100) &#171;NOT NULL&#187;</text><text fill="#000000" font-family="sans-serif" font-size="14" lengthAdjust="spacing" textLength="177.0986" x="213.96" y="145.4795">industry : VARCHAR(100)</text><text fill="#000000" font-family="sans-serif" font-size="14" lengthAdjust="spacing" textLength="175.2051" x="213.96" y="161.7764">position : VARCHAR(100)</text><text fill="#000000" font-family="sans-serif" font-size="14" lengthAdjust="spacing" textLength="260.8115" x="213.96" y="178.0732">branch : VARCHAR(100) &#171;NOT NULL&#187;</text><text fill="#000000" font-family="sans-serif" font-size="14" lengthAdjust="spacing" textLength="249.7783" x="213.96" y="194.3701">roll_no : VARCHAR(50) &#171;NOT NULL&#187;</text><text fill="#000000" font-family="sans-serif" font-size="14" lengthAdjust="spacing" textLength="242.7646" x="213.96" y="210.667">batch : VARCHAR(50) &#171;NOT NULL&#187;</text></g><!--class contact_details--><g id="elem_contact_details"><rect codeLine="14" fill="#F1F1F1" height="145.7813" id="contact_details" rx="2.5" ry="2.5" style="stroke:#181818;stroke-width:0.5;" width="215.4717" x="7" y="319.41"/><ellipse cx="56.7588" cy="335.41" fill="#ADD1B2" rx="11" ry="11" style="stroke:#181818;stroke-width:1.0;"/><path d="M60.8682,341.41 L53.1494,341.41 L53.1494,329.0194 L60.8682,329.0194 L60.8682,331.1756 L55.6025,331.1756 L55.6025,333.8475 L60.3682,333.8475 L60.3682,336.0037 L55.6025,336.0037 L55.6025,339.2537 L60.8682,339.2537 L60.8682,341.41 Z " fill="#000000"/><text fill="#000000" font-family="sans-serif" font-size="14" lengthAdjust="spacing" textLength="107.4541" x="77.2588" y="340.2567">Contact Details</text><line style="stroke:#181818;stroke-width:0.5;" x1="8" x2="221.4717" y1="351.41" y2="351.41"/><ellipse cx="18" cy="365.0584" fill="none" rx="3" ry="3" style="stroke:#038048;stroke-width:1.0;"/><text fill="#000000" font-family="sans-serif" font-size="14" lengthAdjust="spacing" textLength="148.1416" x="27" y="368.4051">contact_id : INT &#171;PK&#187;</text><ellipse cx="18" cy="381.3553" fill="none" rx="3" ry="3" style="stroke:#038048;stroke-width:1.0;"/><text fill="#000000" font-family="sans-serif" font-size="14" lengthAdjust="spacing" textLength="143.3496" x="27" y="384.702">person_id : INT &#171;FK&#187;</text><line style="stroke:#181818;stroke-width:0.5;" x1="8" x2="221.4717" y1="392.0037" y2="392.0037"/><text fill="#000000" font-family="sans-serif" font-size="14" lengthAdjust="spacing" textLength="203.4717" x="13" y="408.9989">facebook_id : VARCHAR(255)</text><text fill="#000000" font-family="sans-serif" font-size="14" lengthAdjust="spacing" textLength="185.7051" x="13" y="425.2957">twitter_id : VARCHAR(255)</text><text fill="#000000" font-family="sans-serif" font-size="14" lengthAdjust="spacing" textLength="194.5508" x="13" y="441.5926">linkedin_id : VARCHAR(255)</text><text fill="#000000" font-family="sans-serif" font-size="14" lengthAdjust="spacing" textLength="184.4268" x="13" y="457.8895">github_id : VARCHAR(255)</text></g><!--class professional_details--><g id="elem_professional_details"><rect codeLine="23" fill="#F1F1F1" height="178.375" id="professional_details" rx="2.5" ry="2.5" style="stroke:#181818;stroke-width:0.5;" width="206.8857" x="257.29" y="303.12"/><ellipse cx="289.0345" cy="319.12" fill="#ADD1B2" rx="11" ry="11" style="stroke:#181818;stroke-width:1.0;"/><path d="M293.1439,325.12 L285.4251,325.12 L285.4251,312.7294 L293.1439,312.7294 L293.1439,314.8856 L287.8782,314.8856 L287.8782,317.5575 L292.6439,317.5575 L292.6439,319.7138 L287.8782,319.7138 L287.8782,322.9638 L293.1439,322.9638 L293.1439,325.12 Z " fill="#000000"/><text fill="#000000" font-family="sans-serif" font-size="14" lengthAdjust="spacing" textLength="137.6758" x="306.7555" y="323.9667">Professional Details</text><line style="stroke:#181818;stroke-width:0.5;" x1="258.29" x2="463.1757" y1="335.12" y2="335.12"/><ellipse cx="268.29" cy="348.7684" fill="none" rx="3" ry="3" style="stroke:#038048;stroke-width:1.0;"/><text fill="#000000" font-family="sans-serif" font-size="14" lengthAdjust="spacing" textLength="180.8857" x="277.29" y="352.1151">professional_id : INT &#171;PK&#187;</text><ellipse cx="268.29" cy="365.0653" fill="none" rx="3" ry="3" style="stroke:#038048;stroke-width:1.0;"/><text fill="#000000" font-family="sans-serif" font-size="14" lengthAdjust="spacing" textLength="143.3496" x="277.29" y="368.412">person_id : INT &#171;FK&#187;</text><text fill="#000000" font-family="sans-serif" font-size="14" lengthAdjust="spacing" textLength="114.6113" x="277.29" y="384.7089">experience : INT</text><text fill="#000000" font-family="sans-serif" font-size="14" lengthAdjust="spacing" textLength="121.4404" x="277.29" y="401.0057">from_year : YEAR</text><text fill="#000000" font-family="sans-serif" font-size="14" lengthAdjust="spacing" textLength="102.6074" x="277.29" y="417.3026">to_year : YEAR</text><line style="stroke:#181818;stroke-width:0.5;" x1="258.29" x2="463.1757" y1="424.6044" y2="424.6044"/><text fill="#000000" font-family="sans-serif" font-size="14" lengthAdjust="spacing" textLength="146.5762" x="263.29" y="441.5995">role : VARCHAR(100)</text><text fill="#000000" font-family="sans-serif" font-size="14" lengthAdjust="spacing" textLength="177.0986" x="263.29" y="457.8964">industry : VARCHAR(100)</text><text fill="#000000" font-family="sans-serif" font-size="14" lengthAdjust="spacing" textLength="176.9414" x="263.29" y="474.1932">function : VARCHAR(100)</text></g><!--class education_details--><g id="elem_education_details"><rect codeLine="34" fill="#F1F1F1" height="194.6719" id="education_details" rx="2.5" ry="2.5" style="stroke:#181818;stroke-width:0.5;" width="228.6104" x="499.43" y="294.97"/><ellipse cx="548.1429" cy="310.97" fill="#ADD1B2" rx="11" ry="11" style="stroke:#181818;stroke-width:1.0;"/><path d="M552.2523,316.97 L544.5335,316.97 L544.5335,304.5794 L552.2523,304.5794 L552.2523,306.7356 L546.9866,306.7356 L546.9866,309.4075 L551.7523,309.4075 L551.7523,311.5638 L546.9866,311.5638 L546.9866,314.8138 L552.2523,314.8138 L552.2523,316.97 Z " fill="#000000"/><text fill="#000000" font-family="sans-serif" font-size="14" lengthAdjust="spacing" textLength="122.6846" x="568.6429" y="315.8167">Education Details</text><line style="stroke:#181818;stroke-width:0.5;" x1="500.43" x2="727.0404" y1="326.97" y2="326.97"/><ellipse cx="510.43" cy="340.6184" fill="none" rx="3" ry="3" style="stroke:#038048;stroke-width:1.0;"/><text fill="#000000" font-family="sans-serif" font-size="14" lengthAdjust="spacing" textLength="165.2178" x="519.43" y="343.9651">education_id : INT &#171;PK&#187;</text><ellipse cx="510.43" cy="356.9153" fill="none" rx="3" ry="3" style="stroke:#038048;stroke-width:1.0;"/><text fill="#000000" font-family="sans-serif" font-size="14" lengthAdjust="spacing" textLength="143.3496" x="519.43" y="360.262">person_id : INT &#171;FK&#187;</text><text fill="#000000" font-family="sans-serif" font-size="14" lengthAdjust="spacing" textLength="151.9014" x="519.43" y="376.5589">hss_from_year : YEAR</text><text fill="#000000" font-family="sans-serif" font-size="14" lengthAdjust="spacing" textLength="133.0684" x="519.43" y="392.8557">hss_to_year : YEAR</text><text fill="#000000" font-family="sans-serif" font-size="14" lengthAdjust="spacing" textLength="150.7256" x="519.43" y="409.1526">ssc_from_year : YEAR</text><text fill="#000000" font-family="sans-serif" font-size="14" lengthAdjust="spacing" textLength="131.8926" x="519.43" y="425.4495">ssc_to_year : YEAR</text><line style="stroke:#181818;stroke-width:0.5;" x1="500.43" x2="727.0404" y1="432.7513" y2="432.7513"/><text fill="#000000" font-family="sans-serif" font-size="14" lengthAdjust="spacing" textLength="169.1211" x="505.43" y="449.7464">degree : VARCHAR(100)</text><text fill="#000000" font-family="sans-serif" font-size="14" lengthAdjust="spacing" textLength="215.1201" x="505.43" y="466.0432">branch_name : VARCHAR(100)</text><text fill="#000000" font-family="sans-serif" font-size="14" lengthAdjust="spacing" textLength="216.6104" x="505.43" y="482.3401">college_name : VARCHAR(255)</text></g><!--link personal_information to contact_details--><g id="link_personal_information_contact_details"><path codeLine="46" d="M262.7777,224.1104 C232.9577,257.8004 217.8246,274.8854 190.5446,305.6854 " fill="none" id="personal_information-contact_details" style="stroke:#181818;stroke-width:1.0;"/><line style="stroke:#181818;stroke-width:1.0;" x1="262.4336" x2="268.4241" y1="218.4641" y2="223.7664"/><line style="stroke:#181818;stroke-width:1.0;" x1="260.4452" x2="266.4357" y1="220.7105" y2="226.0128"/><line style="stroke:#181818;stroke-width:1.0;" x1="262.7777" x2="268.08" y1="224.1104" y2="218.12"/><line style="stroke:#181818;stroke-width:1.0;" x1="183.9143" x2="183.1015" y1="313.1713" y2="323.1382"/><line style="stroke:#181818;stroke-width:1.0;" x1="183.9143" x2="174.1185" y1="313.1713" y2="315.1818"/><line style="stroke:#181818;stroke-width:1.0;" x1="183.9143" x2="178.61" y1="313.1713" y2="319.16"/><ellipse cx="187.8925" cy="308.6798" fill="none" rx="4" ry="4" style="stroke:#181818;stroke-width:1.0;"/><text fill="#000000" font-family="sans-serif" font-size="13" lengthAdjust="spacing" textLength="55.0278" x="238.74" y="261.0369">contains</text></g><!--link personal_information to professional_details--><g id="link_personal_information_professional_details"><path codeLine="47" d="M360.74,226.12 C360.74,253.96 360.74,257.76 360.74,284.65 " fill="none" id="personal_information-professional_details" style="stroke:#181818;stroke-width:1.0;"/><line style="stroke:#181818;stroke-width:1.0;" x1="356.74" x2="364.74" y1="222.12" y2="222.12"/><line style="stroke:#181818;stroke-width:1.0;" x1="356.74" x2="364.74" y1="225.12" y2="225.12"/><line style="stroke:#181818;stroke-width:1.0;" x1="360.74" x2="360.74" y1="226.12" y2="218.12"/><line style="stroke:#181818;stroke-width:1.0;" x1="360.74" x2="366.74" y1="294.65" y2="302.65"/><line style="stroke:#181818;stroke-width:1.0;" x1="360.74" x2="354.74" y1="294.65" y2="302.65"/><line style="stroke:#181818;stroke-width:1.0;" x1="360.74" x2="360.74" y1="294.65" y2="302.65"/><ellipse cx="360.74" cy="288.65" fill="none" rx="4" ry="4" style="stroke:#181818;stroke-width:1.0;"/><text fill="#000000" font-family="sans-serif" font-size="13" lengthAdjust="spacing" textLength="55.0278" x="361.74" y="261.0369">contains</text></g><!--link personal_information to education_details--><g id="link_personal_information_education_details"><path codeLine="48" d="M461.4077,224.0338 C484.2477,249.1038 491.0085,256.5433 513.5085,281.2433 " fill="none" id="personal_information-education_details" style="stroke:#181818;stroke-width:1.0;"/><line style="stroke:#181818;stroke-width:1.0;" x1="455.757" x2="461.6707" y1="223.7707" y2="218.383"/><line style="stroke:#181818;stroke-width:1.0;" x1="457.7774" x2="463.6911" y1="225.9884" y2="220.6007"/><line style="stroke:#181818;stroke-width:1.0;" x1="461.4077" x2="456.02" y1="224.0338" y2="218.12"/><line style="stroke:#181818;stroke-width:1.0;" x1="520.2427" x2="530.0656" y1="288.6359" y2="290.5095"/><line style="stroke:#181818;stroke-width:1.0;" x1="520.2427" x2="521.1944" y1="288.6359" y2="298.5905"/><line style="stroke:#181818;stroke-width:1.0;" x1="520.2427" x2="525.63" y1="288.6359" y2="294.55"/><ellipse cx="516.2022" cy="284.2003" fill="none" rx="4" ry="4" style="stroke:#181818;stroke-width:1.0;"/><text fill="#000000" font-family="sans-serif" font-size="13" lengthAdjust="spacing" textLength="55.0278" x="496.74" y="261.0369">contains</text></g><!--SRC=[bPJVQy8m4CVV_Ik2Jnj3S0DVH0HnZid4YRZ1daAQNlMmJKgIiedkVrzjsbdR-AkFz_bUkBllNK4OD1lId87IKh2GZ4KWLSGCIj4aJ9Cu1nGFW6mR9FqUBAFeaouPJnUarvkzzViP2r1fGmMB86MVW_dmTJ2_UsotxrFHz7r1fX-JIIuDsRLA7vOABiism1IL0UKoYaF82kwIhz5WNfUYy1DjrARoPiPYgJ5FhZ5FCS5N5ojHCWofa2LTnoNpc3bwh2RwRJGWDseeXM7Sa6Sm34ETUSHjZFesLjXJX5t-EBnx-VUESV2aN5jO5FNKwTZUpJSQ0-e43L6imKTn0Y_Hh1BF0KijpfGCG6lCzh7SPrm2rMQFsAqTmqyA4GG7omhpmENzkPq94i5FxKoWP4JtkvblenscF0gLfZ3o4swlhJm2AABL_W_WrkPNMbDdRNjGgMyVrfgxzNlWq3kljdH5hjlFC4-l1vPGvSMwEFzCkrsh9RUrY-ZQ20fzDisvO5Vcrfqv9Fu1]--></g></svg>